<svg width="38" height="37" viewBox="0 0 38 37" fill="none" xmlns="http://www.w3.org/2000/svg">
<g id="Featured icon">
<rect x="0.5" width="37" height="37" rx="18.5" fill="white"/>
<path id="Vector" d="M27.4995 22.9791V25.3877C27.5004 25.6113 27.4545 25.8327 27.3648 26.0375C27.275 26.2424 27.1434 26.4263 26.9783 26.5775C26.8132 26.7286 26.6183 26.8437 26.406 26.9154C26.1938 26.987 25.9689 27.0136 25.7457 26.9935C23.2702 26.725 20.8923 25.8808 18.8031 24.5286C16.8594 23.2959 15.2114 21.6512 13.9763 19.7113C12.6167 17.6168 11.7706 15.2321 11.5065 12.7504C11.4864 12.5283 11.5129 12.3046 11.5842 12.0933C11.6555 11.882 11.7701 11.6879 11.9206 11.5233C12.0712 11.3586 12.2545 11.2271 12.4589 11.137C12.6632 11.0469 12.8841 11.0003 13.1074 11.0001H15.5209C15.9113 10.9962 16.2898 11.1342 16.5858 11.3883C16.8818 11.6424 17.0752 11.9952 17.1298 12.381C17.2317 13.1519 17.4206 13.9087 17.6929 14.6371C17.8012 14.9245 17.8246 15.2368 17.7604 15.5371C17.6963 15.8373 17.5472 16.1129 17.3309 16.3312L16.3092 17.3509C17.4545 19.3609 19.1221 21.0252 21.1361 22.1682L22.1578 21.1485C22.3765 20.9326 22.6527 20.7839 22.9535 20.7198C23.2544 20.6558 23.5673 20.6792 23.8552 20.7872C24.5851 21.059 25.3435 21.2476 26.1158 21.3492C26.5066 21.4042 26.8635 21.6007 27.1186 21.9012C27.3737 22.2017 27.5093 22.5853 27.4995 22.9791Z" fill="#165301"/>
</g>
</svg>
