<svg width="37" height="37" viewBox="0 0 37 37" fill="none" xmlns="http://www.w3.org/2000/svg">
<g id="react-icons/md/MdOutlineRealEstateAgent">
<rect width="37" height="37" rx="18.5" fill="white"/>
<path id="Vector" d="M16.25 4.875V10.5H14.75V5.625L11 3L7.25 5.625V6.75H5.75V4.875L11 1.125L16.25 4.875ZM12.125 5.25H11.375V6H12.125V5.25ZM10.625 5.25H9.875V6H10.625V5.25ZM12.125 6.75H11.375V7.5H12.125V6.75ZM10.625 6.75H9.875V7.5H10.625V6.75ZM14.75 12H13.25C13.25 11.1 12.6875 10.29 11.8475 9.975L7.2275 8.25H1.25V16.5H5.75V15.42L11 16.875L17 15V14.25C17 13.005 15.995 12 14.75 12ZM2.75 15V9.75H4.25V15H2.75ZM10.9775 15.3075L5.75 13.86V9.75H6.9575L11.3225 11.3775C11.5775 11.475 11.75 11.7225 11.75 12C11.75 12 10.2575 11.9625 10.025 11.8875L8.24 11.295L7.7675 12.72L9.5525 13.3125C9.935 13.44 10.3325 13.5075 10.7375 13.5075H14.75C15.0425 13.5075 15.305 13.68 15.425 13.9275L10.9775 15.3075Z" fill="#BA1DC8"/>
</g>
</svg>
