<svg width="68" height="62" viewBox="0 0 68 62" fill="none" xmlns="http://www.w3.org/2000/svg">
<rect x="0.739746" width="66.8497" height="62" rx="11.9" fill="#013653"/>
<path d="M42.3094 37.1568L36.6534 42.6257C36.1374 43.1244 35.2566 43.1251 34.7398 42.6257L29.0833 37.1568C28.3105 36.4097 28.8997 35.1875 30.0401 35.1875H33.5205V21.9062H28.952C28.8663 21.9063 28.7814 21.8911 28.7022 21.8617C28.623 21.8322 28.551 21.789 28.4904 21.7346L25.4439 19.0002C25.0326 18.6312 25.3239 18 25.9055 18H36.5671C37.2882 18 37.8727 18.5247 37.8727 19.1719V35.1875H41.3526C42.4884 35.1875 43.0854 36.4067 42.3094 37.1568Z" fill="white"/>
</svg>
