<svg width="68" height="62" viewBox="0 0 68 62" fill="none" xmlns="http://www.w3.org/2000/svg">
<rect x="0.739624" width="66.8497" height="62" rx="11.9" fill="#F75500"/>
<path d="M42.3094 23.8432L36.6534 18.3743C36.1374 17.8756 35.2566 17.8749 34.7398 18.3743L29.0833 23.8432C28.3105 24.5903 28.8997 25.8125 30.0401 25.8125H33.5205V39.0938H28.952C28.8663 39.0937 28.7814 39.1089 28.7022 39.1384C28.623 39.1678 28.551 39.211 28.4904 39.2654L25.4439 41.9998C25.0326 42.3689 25.3239 43 25.9055 43H36.5671C37.2882 43 37.8727 42.4753 37.8727 41.8281V25.8125H41.3526C42.4884 25.8125 43.0854 24.5933 42.3094 23.8432Z" fill="white"/>
</svg>
