<svg width="168" height="163" viewBox="0 0 168 163" fill="none" xmlns="http://www.w3.org/2000/svg">
<g clip-path="url(#clip0_1670_46537)">
<path d="M106.518 36.6585H61.5192C60.4938 36.6597 59.5107 37.0676 58.7856 37.7926C58.0605 38.5177 57.6525 39.5007 57.6513 40.5261V140.529L57.1356 140.687L46.0965 144.067C45.5734 144.227 45.0083 144.172 44.5253 143.915C44.0424 143.659 43.681 143.221 43.5206 142.698L10.6845 35.4492C10.5247 34.926 10.5792 34.3609 10.8359 33.8779C11.0927 33.3949 11.5307 33.0336 12.0538 32.8734L29.0649 27.665L78.3808 12.571L95.3918 7.36262C95.6507 7.28295 95.9227 7.25511 96.1924 7.28069C96.462 7.30628 96.724 7.38478 96.9632 7.51171C97.2025 7.63864 97.4144 7.8115 97.5868 8.02041C97.7592 8.22932 97.8887 8.47017 97.9679 8.72917L106.361 36.1428L106.518 36.6585Z" fill="#F2F2F2"/>
<path d="M116.338 36.1423L106.222 3.10266C106.054 2.55216 105.779 2.04021 105.412 1.59608C105.046 1.15194 104.596 0.78432 104.087 0.514221C103.579 0.244123 103.022 0.0768369 102.449 0.0219301C101.876 -0.0329767 101.298 0.0255713 100.748 0.194222L76.831 7.51431L27.5178 22.6109L3.60118 29.9335C2.49014 30.2747 1.55985 31.0427 1.01451 32.0689C0.46917 33.0952 0.353333 34.2959 0.692428 35.4075L35.2664 148.324C35.5419 149.221 36.0977 150.006 36.8523 150.565C37.6069 151.123 38.5206 151.424 39.4593 151.425C39.8938 151.426 40.3258 151.36 40.7408 151.232L57.1356 146.214L57.6513 146.055V145.516L57.1356 145.673L40.5887 150.74C39.608 151.038 38.5488 150.936 37.6434 150.455C36.7379 149.974 36.0603 149.154 35.759 148.174L1.18763 35.2554C1.03835 34.7698 0.986321 34.2596 1.03452 33.754C1.08272 33.2483 1.2302 32.7571 1.46852 32.3085C1.70684 31.8599 2.03132 31.4627 2.42337 31.1397C2.81542 30.8167 3.26735 30.5742 3.75327 30.426L27.6699 23.1034L76.9832 8.00937L100.9 0.686703C101.268 0.574232 101.652 0.516886 102.037 0.516527C102.864 0.518384 103.669 0.78498 104.333 1.27727C104.998 1.76955 105.487 2.46166 105.73 3.25221L115.799 36.1424L115.959 36.658H116.495L116.338 36.1423Z" fill="#3F3D56"/>
<path d="M32.1346 32.9571C31.6376 32.9567 31.1538 32.7971 30.7542 32.5017C30.3546 32.2062 30.0601 31.7905 29.9141 31.3155L26.5928 20.4677C26.5035 20.1763 26.4725 19.8702 26.5016 19.5668C26.5307 19.2634 26.6193 18.9688 26.7622 18.6996C26.9052 18.4305 27.0998 18.1922 27.3349 17.9983C27.5701 17.8044 27.8411 17.6586 28.1325 17.5695L73.5003 3.68122C74.0888 3.50164 74.7245 3.56289 75.268 3.85151C75.8114 4.14014 76.2181 4.63256 76.3988 5.22071L79.7202 16.0686C79.8996 16.6571 79.8383 17.2928 79.5497 17.8361C79.2611 18.3795 78.7687 18.7862 78.1805 18.967L32.8126 32.8552C32.5929 32.9226 32.3644 32.957 32.1346 32.9571Z" fill="#009FF5"/>
<path d="M49.5331 11.591C52.3814 11.591 54.6904 9.28218 54.6904 6.43415C54.6904 3.58613 52.3814 1.27734 49.5331 1.27734C46.6849 1.27734 44.3759 3.58613 44.3759 6.43415C44.3759 9.28218 46.6849 11.591 49.5331 11.591Z" fill="#009FF5"/>
<path d="M49.5331 9.69887C51.3367 9.69887 52.7988 8.23688 52.7988 6.43342C52.7988 4.62996 51.3367 3.16797 49.5331 3.16797C47.7295 3.16797 46.2674 4.62996 46.2674 6.43342C46.2674 8.23688 47.7295 9.69887 49.5331 9.69887Z" fill="white"/>
<path d="M155.896 150.108H68.7394C68.1583 150.107 67.6011 149.876 67.1902 149.465C66.7793 149.054 66.5482 148.497 66.5475 147.916V43.4905C66.5482 42.9094 66.7793 42.3523 67.1902 41.9415C67.6011 41.5306 68.1583 41.2995 68.7394 41.2988H155.896C156.477 41.2995 157.035 41.5306 157.445 41.9415C157.856 42.3524 158.087 42.9094 158.088 43.4905V147.916C158.087 148.497 157.856 149.054 157.445 149.465C157.035 149.876 156.477 150.107 155.896 150.108Z" fill="#E6E6E6"/>
<path d="M115.799 36.1426H61.5192C60.3571 36.1442 59.2431 36.6066 58.4213 37.4282C57.5996 38.2499 57.1372 39.3639 57.1356 40.5259V145.673L57.6513 145.516V40.5259C57.6526 39.5005 58.0605 38.5175 58.7856 37.7924C59.5107 37.0674 60.4938 36.6595 61.5192 36.6583H115.959L115.799 36.1426ZM163.116 36.1426H61.5192C60.3571 36.1442 59.2431 36.6066 58.4213 37.4282C57.5996 38.2499 57.1372 39.3639 57.1356 40.5259V158.617C57.1372 159.779 57.5996 160.893 58.4213 161.714C59.2431 162.536 60.3571 162.998 61.5192 163H163.116C164.278 162.998 165.393 162.536 166.214 161.714C167.036 160.893 167.498 159.779 167.5 158.617V40.5259C167.498 39.3639 167.036 38.2499 166.214 37.4282C165.393 36.6066 164.278 36.1442 163.116 36.1426ZM166.984 158.617C166.983 159.642 166.575 160.625 165.85 161.35C165.125 162.075 164.142 162.483 163.116 162.484H61.5192C60.4938 162.483 59.5107 162.075 58.7856 161.35C58.0605 160.625 57.6526 159.642 57.6513 158.617V40.5259C57.6526 39.5005 58.0605 38.5175 58.7856 37.7924C59.5107 37.0674 60.4938 36.6595 61.5192 36.6583H163.116C164.142 36.6595 165.125 37.0674 165.85 37.7924C166.575 38.5175 166.983 39.5005 166.984 40.5259V158.617Z" fill="#3F3D56"/>
<path d="M136.041 47.4881H88.5946C87.9794 47.4874 87.3895 47.2427 86.9544 46.8076C86.5193 46.3726 86.2746 45.7827 86.2739 45.1675V33.8225C86.2746 33.2073 86.5193 32.6174 86.9544 32.1824C87.3895 31.7474 87.9794 31.5026 88.5946 31.502H136.041C136.656 31.5026 137.246 31.7474 137.681 32.1824C138.116 32.6174 138.361 33.2073 138.362 33.8225V45.1675C138.361 45.7827 138.116 46.3726 137.681 46.8076C137.246 47.2427 136.656 47.4874 136.041 47.4881Z" fill="#009FF5"/>
<path d="M112.318 32.2746C115.166 32.2746 117.475 29.9658 117.475 27.1177C117.475 24.2697 115.166 21.9609 112.318 21.9609C109.47 21.9609 107.161 24.2697 107.161 27.1177C107.161 29.9658 109.47 32.2746 112.318 32.2746Z" fill="#009FF5"/>
<path d="M112.318 30.2585C114.053 30.2585 115.459 28.8523 115.459 27.1175C115.459 25.3828 114.053 23.9766 112.318 23.9766C110.583 23.9766 109.177 25.3828 109.177 27.1175C109.177 28.8523 110.583 30.2585 112.318 30.2585Z" fill="white"/>
</g>
<defs>
<clipPath id="clip0_1670_46537">
<rect width="167" height="163" fill="white" transform="translate(0.5)"/>
</clipPath>
</defs>
</svg>
