<svg width="154" height="162" viewBox="0 0 154 162" fill="none" xmlns="http://www.w3.org/2000/svg">
<g id="undraw_void_-3-ggu 1" clip-path="url(#clip0_1535_46568)">
<path id="Vector" d="M59.5724 162C92.4733 162 119.145 157.263 119.145 151.42C119.145 145.577 92.4733 140.84 59.5724 140.84C26.6715 140.84 0 145.577 0 151.42C0 157.263 26.6715 162 59.5724 162Z" fill="#6E6D7E"/>
<path id="Vector_2" d="M95.7793 117.059C127.934 117.059 154 90.8547 154 58.5297C154 26.2046 127.934 0 95.7793 0C63.6249 0 37.5586 26.2046 37.5586 58.5297C37.5586 90.8547 63.6249 117.059 95.7793 117.059Z" fill="#6E6D7E"/>
<path id="Vector_3" opacity="0.05" d="M95.7793 106.847C122.324 106.847 143.842 85.2144 143.842 58.529C143.842 31.8437 122.324 10.2109 95.7793 10.2109C69.2348 10.2109 47.7163 31.8437 47.7163 58.529C47.7163 85.2144 69.2348 106.847 95.7793 106.847Z" fill="#EAEAEA"/>
<path id="Vector_4" opacity="0.05" d="M95.7793 98.1315C117.535 98.1315 135.171 80.4016 135.171 58.5306C135.171 36.6596 117.535 18.9297 95.7793 18.9297C74.0238 18.9297 56.3874 36.6596 56.3874 58.5306C56.3874 80.4016 74.0238 98.1315 95.7793 98.1315Z" fill="#EAEAEA"/>
<path id="Vector_5" opacity="0.05" d="M95.7793 86.9229C111.378 86.9229 124.023 74.2109 124.023 58.5298C124.023 42.8487 111.378 30.1367 95.7793 30.1367C80.181 30.1367 67.5361 42.8487 67.5361 58.5298C67.5361 74.2109 80.181 86.9229 95.7793 86.9229Z" fill="#EAEAEA"/>
<path id="Vector_6" d="M38.0743 63.7676C38.0743 63.7676 33.4969 76.7202 35.5313 81.3219C37.5657 85.9235 40.7867 90.3546 40.7867 90.3546C40.7867 90.3546 39.6 64.6197 38.0743 63.7676Z" fill="#DFDFDF"/>
<path id="Vector_7" opacity="0.1" d="M38.0743 63.7676C38.0743 63.7676 33.4969 76.7202 35.5313 81.3219C37.5657 85.9235 40.7867 90.3546 40.7867 90.3546C40.7867 90.3546 39.6 64.6197 38.0743 63.7676Z" fill="#EAEAEA"/>
<path id="Vector_8" d="M41.2953 93.7627C41.2953 93.7627 40.9563 97.0009 40.7867 97.1713C40.6172 97.3417 40.9563 97.6826 40.7867 98.1939C40.6172 98.7052 40.4477 99.3869 40.7867 99.5573C41.1258 99.7278 38.9219 114.726 38.9219 114.726C38.9219 114.726 33.4969 121.884 35.7008 133.132L36.379 144.551C36.379 144.551 41.6344 144.892 41.6344 143.017C41.6344 143.017 41.2953 140.801 41.2953 139.779C41.2953 138.756 42.143 138.756 41.6344 138.245C41.1258 137.734 41.1258 137.393 41.1258 137.393C41.1258 137.393 41.9734 136.711 41.8039 136.541C41.6344 136.37 43.3297 124.27 43.3297 124.27C43.3297 124.27 45.1945 122.395 45.1945 121.372V120.35C45.1945 120.35 46.0422 118.134 46.0422 117.964C46.0422 117.793 50.6195 107.397 50.6195 107.397L52.4843 114.896L54.5187 125.633C54.5187 125.633 55.5358 135.348 57.5702 139.097C57.5702 139.097 61.1303 151.368 61.1303 151.027C61.1303 150.686 67.0639 149.834 66.8944 148.3C66.7248 146.766 63.3342 125.292 63.3342 125.292L64.1819 93.4219L41.2953 93.7627Z" fill="#ADADAD"/>
<path id="Vector_9" d="M36.718 143.699C36.718 143.699 32.1407 152.732 35.1922 153.073C38.2438 153.414 39.4305 153.414 40.7867 152.051C41.5282 151.305 43.0297 150.305 44.2386 149.552C44.9549 149.112 45.5335 148.479 45.9082 147.724C46.2828 146.969 46.4383 146.124 46.3567 145.284C46.2673 144.45 45.9574 143.763 45.1945 143.699C43.1602 143.529 40.7867 141.654 40.7867 141.654L36.718 143.699Z" fill="#ADADAD"/>
<path id="Vector_10" d="M61.978 150.346C61.978 150.346 57.4007 159.379 60.4522 159.72C63.5038 160.06 64.6905 160.06 66.0467 158.697C66.7882 157.952 68.2897 156.952 69.4986 156.198C70.2149 155.759 70.7935 155.125 71.1682 154.371C71.5428 153.616 71.6983 152.77 71.6167 151.931C71.5273 151.097 71.2174 150.41 70.4545 150.346C68.4201 150.176 66.0467 148.301 66.0467 148.301L61.978 150.346Z" fill="#ADADAD"/>
<path id="Vector_11" d="M57.1403 48.9867C61.0761 48.9867 64.2667 45.7791 64.2667 41.8224C64.2667 37.8657 61.0761 34.6582 57.1403 34.6582C53.2045 34.6582 50.0139 37.8657 50.0139 41.8224C50.0139 45.7791 53.2045 48.9867 57.1403 48.9867Z" fill="#FFB8B8"/>
<path id="Vector_12" d="M52.559 44.1758C52.559 44.1758 47.4687 53.5916 47.0615 53.5916C46.6543 53.5916 56.224 56.662 56.224 56.662C56.224 56.662 58.871 47.6555 59.2782 46.8368L52.559 44.1758Z" fill="#FFB8B8"/>
<path id="Vector_13" d="M60.3675 54.479C60.3675 54.479 50.1957 48.8549 49.1785 49.0253C48.1613 49.1957 37.3114 58.7398 37.4809 62.6597C37.6504 66.5795 39.0067 73.0559 39.0067 73.0559C39.0067 73.0559 39.5153 91.1214 40.5324 91.2919C41.5496 91.4623 40.3629 94.53 40.702 94.53C41.041 94.53 64.4362 94.53 64.6057 94.0187C64.7752 93.5075 60.3675 54.479 60.3675 54.479Z" fill="#DFDFDF"/>
<path id="Vector_14" d="M66.0467 94.957C66.0467 94.957 69.2678 104.842 66.5553 104.501C63.8428 104.16 62.6561 95.9796 62.6561 95.9796L66.0467 94.957Z" fill="#FFB8B8"/>
<path id="Vector_15" d="M57.4007 53.8827C57.4007 53.8827 51.1281 55.2461 52.1453 63.7676C53.1624 72.2891 55.0273 80.8106 55.0273 80.8106L61.2999 94.6154L61.978 97.1718L66.5553 95.9788L63.1647 76.209C63.1647 76.209 61.978 55.0757 60.4522 54.394C59.4901 53.9816 58.4439 53.8063 57.4007 53.8827Z" fill="#DFDFDF"/>
<path id="Vector_16" opacity="0.1" d="M53.5862 80.5556L61.3847 94.5307L54.8143 79.8047L53.5862 80.5556Z" fill="#EAEAEA"/>
<path id="Vector_17" d="M64.2351 39.7123L64.2587 39.1648L65.342 39.4359C65.3304 39.2601 65.281 39.089 65.1972 38.9343C65.1134 38.7796 64.9971 38.6451 64.8566 38.5399L66.0105 38.4751C65.0422 37.0918 63.8051 35.9201 62.3738 35.0309C60.9425 34.1416 59.3468 33.5533 57.683 33.3013C55.187 32.9376 52.4077 33.4639 50.6961 35.3261C49.8659 36.2294 49.3443 37.3781 48.9732 38.55C48.2898 40.7083 48.1505 43.2813 49.5756 45.0357C51.024 46.8188 53.5539 47.1681 55.8333 47.3887C56.6353 47.4664 57.4758 47.5386 58.219 47.2258C58.3018 46.3688 58.1926 45.5041 57.8997 44.695C57.7777 44.4445 57.7194 44.1676 57.73 43.8889C57.8313 43.2072 58.7358 43.0354 59.4153 43.1275C60.0948 43.2196 60.9118 43.3605 61.3583 42.8374C61.6658 42.4771 61.6477 41.9524 61.6884 41.4794C61.7994 40.1916 64.2235 39.9822 64.2351 39.7123Z" fill="#ADADAD"/>
<path id="Vector_18" d="M107.945 152.877C112.531 152.877 116.248 149.139 116.248 144.529C116.248 139.919 112.531 136.182 107.945 136.182C103.359 136.182 99.6414 139.919 99.6414 144.529C99.6414 149.139 103.359 152.877 107.945 152.877Z" fill="#BBBBBB"/>
<path id="Vector_19" d="M10.4276 149.965C15.0135 149.965 18.731 146.227 18.731 141.617C18.731 137.007 15.0135 133.27 10.4276 133.27C5.84173 133.27 2.12415 137.007 2.12415 141.617C2.12415 146.227 5.84173 149.965 10.4276 149.965Z" fill="#BBBBBB"/>
<path id="Vector_20" d="M10.4276 136.569C13.7337 136.569 16.4138 133.875 16.4138 130.551C16.4138 127.228 13.7337 124.533 10.4276 124.533C7.12149 124.533 4.44138 127.228 4.44138 130.551C4.44138 133.875 7.12149 136.569 10.4276 136.569Z" fill="#BBBBBB"/>
<path id="Vector_21" d="M10.4276 125.505C12.7738 125.505 14.6759 123.592 14.6759 121.234C14.6759 118.875 12.7738 116.963 10.4276 116.963C8.08132 116.963 6.17931 118.875 6.17931 121.234C6.17931 123.592 8.08132 125.505 10.4276 125.505Z" fill="#BBBBBB"/>
</g>
<defs>
<clipPath id="clip0_1535_46568">
<rect width="154" height="162" fill="white"/>
</clipPath>
</defs>
</svg>
